<?xml version="1.0" encoding="utf-8"?>
<!-- Generator: Adobe Illustrator 17.0.0, SVG Export Plug-In . SVG Version: 6.00 Build 0)  -->
<!DOCTYPE svg PUBLIC "-//W3C//DTD SVG 1.1//EN" "http://www.w3.org/Graphics/SVG/1.1/DTD/svg11.dtd">
<svg version="1.1" id="Calque_1" xmlns="http://www.w3.org/2000/svg" xmlns:xlink="http://www.w3.org/1999/xlink" x="0px" y="0px"
	 width="20.716px" height="89.321px" viewBox="0 0 20.716 89.321" enable-background="new 0 0 20.716 89.321" xml:space="preserve">
<g>
	<rect x="4.334" y="87.321" fill="#FFFFFF" width="12" height="8"/>
	
		<polyline fill="#FFFFFF" stroke="#000000" stroke-width="3" stroke-linecap="round" stroke-linejoin="round" stroke-miterlimit="10" points="
		4.403,89.321 4.403,70.517 7.361,62.53 13.277,62.53 16.236,70.517 16.236,89.321 	"/>
	
		<line fill="none" stroke="#000000" stroke-width="3" stroke-linecap="round" stroke-linejoin="round" stroke-miterlimit="10" x1="10.319" y1="62.135" x2="10.319" y2="28.677"/>
	<path fill="none" stroke="#000000" stroke-width="3" stroke-linecap="round" stroke-linejoin="round" stroke-miterlimit="10" d="
		M3.712,6.663L5.29,23.944c0,0,0.887,4.733,4.733,4.733s4.733-4.733,4.733-4.733l2.169-17.281"/>
	
		<line fill="none" stroke="#000000" stroke-width="3" stroke-linecap="round" stroke-linejoin="round" stroke-miterlimit="10" x1="1.617" y1="6.663" x2="19.021" y2="6.663"/>
	
		<line fill="none" stroke="#000000" stroke-width="3" stroke-linecap="round" stroke-linejoin="round" stroke-miterlimit="10" x1="5.092" y1="21.767" x2="15.029" y2="21.767"/>
	<path fill="none" stroke="#000000" stroke-width="3" stroke-linecap="round" stroke-linejoin="round" stroke-miterlimit="10" d="
		M13.364,6.195c0,0,0.025-4.425-3.044-4.425S7.275,6.195,7.275,6.195"/>
</g>
</svg>
